<?xml version="1.0" encoding="UTF-8" standalone="no"?><!DOCTYPE svg PUBLIC "-//W3C//DTD SVG 1.1//EN" "http://www.w3.org/Graphics/SVG/1.1/DTD/svg11.dtd"><svg width="100%" height="100%" viewBox="0 0 527 265" version="1.1" xmlns="http://www.w3.org/2000/svg" xmlns:xlink="http://www.w3.org/1999/xlink" xml:space="preserve" xmlns:serif="http://www.serif.com/" style="fill-rule:evenodd;clip-rule:evenodd;stroke-linejoin:round;stroke-miterlimit:1.41421;"><g id="Layer-1" serif:id="Layer 1"><path d="M416.944,144.276c-2.795,1.198 -4.592,1.997 -7.786,2.595l-3.993,1.198c-7.786,1.797 -12.378,4.791 -12.378,11.38c0,6.389 5.391,11.38 11.779,11.38c10.78,-0.2 19.365,-9.584 19.365,-20.564l0,-9.782c-2.396,1.597 -4.192,2.795 -6.987,3.793m-9.664,-17.423c3.521,-1.217 12.95,-8.162 12.95,-8.162l-23.582,9.269c0,0 7.112,0.11 10.632,-1.107m72.715,28.514l0,8.275c0,15.97 -11.579,25.953 -28.549,25.953c-10.181,0 -18.167,-2.796 -23.757,-11.181l-2.395,-3.793l-3.195,3.195c-8.783,9.383 -19.364,11.779 -29.945,11.779c-17.968,0 -33.939,-11.181 -33.939,-27.95c0,-18.922 14.428,-26.297 24.807,-28.999l4.614,-0.973c5.293,-2.022 9.984,5.906 18.975,2.47c8.89,-3.397 21.8,-13.048 18.788,-21.886c0.019,0.049 0.051,0.089 0.07,0.139l-0.167,-0.435c0.038,0.098 0.063,0.197 0.097,0.296c-3.533,-8.753 -19.713,-7.34 -28.652,-3.923c-8.99,3.436 -7.199,12.472 -12.491,14.495c-9.751,3.598 -20.521,2.131 -20.521,2.131c0,0 -5.757,-38.379 49.581,-38.379c19.963,0 43.92,8.584 43.92,28.947l0,46.915c0,3.194 0,6.987 4.991,6.987c4.991,0 5.59,-4.192 5.59,-7.984l0.399,-6.079l11.779,0Z" style="fill:#f98b3c;fill-rule:nonzero;"/><path d="M66.941,208.018l-1.239,0l0,-2.172l5.368,0l0,2.172l-1.425,0l2.932,7.761l2.931,-7.761l-1.506,0l0,-2.172l5.367,0l0,2.172l-1.239,0l-4.934,12.125l-1.321,0l-4.934,-12.125Z" style="fill:#8b587e;fill-rule:nonzero;"/><path d="M79.986,217.822l1.548,0l0,-9.804l-1.548,0l0,-2.172l10.137,0l0,4.042l-2.23,0l0,-1.891l-4.026,0l0,3.783l4.109,0l0,2.064l-4.109,0l0,3.999l4.047,0l0,-1.892l2.23,0l0,4.042l-10.158,0l0,-2.171Z" style="fill:#8b587e;fill-rule:nonzero;"/><path d="M99.68,210.211c0,-1.483 -1.177,-2.193 -3.056,-2.193l-1.259,0l0,4.536c0.248,0.022 0.578,0.043 1.321,0.043c1.755,0 2.994,-0.903 2.994,-2.386m-8.196,7.611l1.548,0l0,-9.804l-1.548,0l0,-2.172l5.264,0c3.118,0 5.348,1.398 5.348,4.279c0,1.827 -1.074,3.225 -2.561,3.848l2.086,3.849l1.548,0l0,2.171l-3.138,0l-2.725,-5.375c-0.289,0.022 -0.558,0.043 -0.826,0.043c-0.433,0 -0.826,0 -1.115,-0.021l0,3.182l1.693,0l0,2.171l-5.574,0l0,-2.171Z" style="fill:#8b587e;fill-rule:nonzero;"/><path d="M103.766,217.822l1.61,0l0.434,-9.804l-1.693,0l0,-2.172l3.716,0l4.17,7.87l4.171,-7.87l3.695,0l0,2.172l-1.693,0l0.434,9.804l1.61,0l0,2.171l-5.574,0l0,-2.171l1.631,0l-0.268,-7.289l-3.882,7.096l-0.309,0l-3.882,-7.096l-0.268,7.289l1.631,0l0,2.171l-5.533,0l0,-2.171Z" style="fill:#8b587e;fill-rule:nonzero;"/><path d="M132.75,212.92c0,-2.946 -1.92,-5.074 -4.542,-5.074c-2.643,0 -4.562,2.107 -4.562,5.074c0,2.945 1.919,5.074 4.562,5.074c2.622,0 4.542,-2.107 4.542,-5.074m-11.52,0c0,-4.149 2.89,-7.332 7.02,-7.332c4.108,0 6.916,3.204 6.916,7.332c0,4.149 -2.891,7.331 -7.02,7.331c-4.108,0 -6.916,-3.203 -6.916,-7.331" style="fill:#8b587e;fill-rule:nonzero;"/><path d="M140.283,210.233l0,7.589l1.693,0l0,2.172l-5.512,0l0,-2.172l1.548,0l0,-9.803l-1.548,0l0,-2.172l3.53,0l6.689,8.879l0,-6.707l-1.692,0l0,-2.172l5.45,0l0,2.172l-1.487,0l0,11.996l-1.259,0.043l-7.412,-9.825Z" style="fill:#8b587e;fill-rule:nonzero;"/><path d="M154.134,217.822l1.693,0l0,-9.868l-2.519,0l0,2.236l-2.209,0l0,-4.344l11.788,0l0,4.344l-2.209,0l0,-2.236l-2.518,0l0,9.868l1.693,0l0,2.171l-5.719,0l0,-2.171Z" style="fill:#8b587e;fill-rule:nonzero;"/><path d="M172.03,216.962c0,-1.011 0.578,-1.677 1.425,-1.677c0.908,0 1.486,0.709 1.486,1.397c0,0.344 -0.062,0.602 -0.186,0.86c0.496,0.366 1.26,0.602 2.148,0.602c1.486,0 2.436,-0.688 2.436,-1.913c0,-1.161 -1.136,-1.72 -2.498,-2.215c-2.519,-0.946 -4.295,-1.784 -4.295,-4.407c0,-2.257 1.755,-4.021 4.501,-4.021c2.539,0 4.501,1.355 4.501,3.053c0,1.011 -0.599,1.592 -1.384,1.592c-0.949,0 -1.486,-0.731 -1.486,-1.441c0,-0.344 0.062,-0.495 0.144,-0.666c-0.371,-0.237 -0.949,-0.431 -1.796,-0.431c-1.342,0 -2.126,0.71 -2.126,1.742c0,1.161 1.135,1.677 2.498,2.193c2.436,0.903 4.274,1.784 4.274,4.407c0,2.688 -2.003,4.214 -4.79,4.214c-2.684,0 -4.852,-1.569 -4.852,-3.289" style="fill:#8b587e;fill-rule:nonzero;"/><path d="M191.208,210.469c0,-1.483 -1.177,-2.451 -2.849,-2.451l-1.466,0l0,5.117c0.248,0.022 0.578,0.043 1.528,0.043c1.755,0 2.787,-1.032 2.787,-2.709m-8.196,7.353l1.548,0l0,-9.804l-1.548,0l0,-2.172l5.471,0c2.911,0 5.141,1.742 5.141,4.623c0,3.247 -2.209,4.837 -5.41,4.837c-0.639,0 -1.032,0 -1.321,-0.021l0,2.537l1.693,0l0,2.171l-5.574,0l0,-2.171Z" style="fill:#8b587e;fill-rule:nonzero;"/><path d="M194.592,217.822l1.548,0l0,-9.804l-1.548,0l0,-2.172l10.137,0l0,4.042l-2.23,0l0,-1.891l-4.026,0l0,3.783l4.109,0l0,2.064l-4.109,0l0,3.999l4.047,0l0,-1.892l2.23,0l0,4.042l-10.158,0l0,-2.171Z" style="fill:#8b587e;fill-rule:nonzero;"/><path d="M205.863,212.92c0,-4.257 3.179,-7.332 7.143,-7.332c3.159,0 5.265,1.721 5.265,3.419c0,1.032 -0.64,1.742 -1.487,1.742c-0.929,0 -1.569,-0.602 -1.569,-1.527c0,-0.28 0.062,-0.559 0.145,-0.731c-0.393,-0.322 -1.177,-0.645 -2.416,-0.645c-2.643,0 -4.665,2.107 -4.665,5.053c0,2.837 1.899,5.095 4.769,5.095c1.589,0 2.89,-0.731 3.901,-1.871l1.549,1.677c-1.322,1.527 -3.283,2.451 -5.45,2.451c-4.191,0 -7.185,-2.924 -7.185,-7.331" style="fill:#8b587e;fill-rule:nonzero;"/><path d="M219.755,217.822l1.652,0l0,-9.804l-1.652,0l0,-2.172l5.636,0l0,2.172l-1.651,0l0,9.804l1.651,0l0,2.171l-5.636,0l0,-2.171Z" style="fill:#8b587e;fill-rule:nonzero;"/><path d="M234.783,213.501l-1.899,-5.569l-1.9,5.569l3.799,0Zm-8.774,4.321l1.177,0l3.386,-9.825l-1.487,0l0,-2.15l7.68,0l0,2.15l-1.486,0l3.385,9.825l1.177,0l0,2.172l-5.223,0l0,-2.15l1.569,0l-0.764,-2.322l-5.077,0l-0.766,2.322l1.653,0l0,2.15l-5.224,0l0,-2.172Z" style="fill:#8b587e;fill-rule:nonzero;"/><path d="M240.459,217.822l1.549,0l0,-9.804l-1.549,0l0,-2.172l5.678,0l0,2.172l-1.797,0l0,9.825l3.737,0l0,-1.999l2.251,0l0,4.149l-9.869,0l0,-2.171Z" style="fill:#8b587e;fill-rule:nonzero;"/><path d="M252.866,217.822l1.693,0l0,-9.868l-2.519,0l0,2.236l-2.209,0l0,-4.344l11.788,0l0,4.344l-2.209,0l0,-2.236l-2.518,0l0,9.868l1.693,0l0,2.171l-5.719,0l0,-2.171Z" style="fill:#8b587e;fill-rule:nonzero;"/><path d="M265.251,217.822l1.714,0l0,-3.225l-3.861,-6.579l-1.362,0l0,-2.172l5.14,0l0,2.172l-1.197,0l2.498,4.536l2.477,-4.536l-1.28,0l0,-2.172l5.141,0l0,2.172l-1.363,0l-3.86,6.579l0,3.225l1.713,0l0,2.171l-5.76,0l0,-2.171Z" style="fill:#8b587e;fill-rule:nonzero;"/><path d="M283.395,217.822l1.548,0l0,-9.804l-1.548,0l0,-2.172l10.013,0l0,4.042l-2.23,0l0,-1.891l-3.902,0l0,4.041l4.006,0l0,2.086l-4.006,0l0,3.698l1.797,0l0,2.171l-5.678,0l0,-2.171Z" style="fill:#8b587e;fill-rule:nonzero;"/><path d="M305.401,212.92c0,-2.946 -1.92,-5.074 -4.542,-5.074c-2.643,0 -4.562,2.107 -4.562,5.074c0,2.945 1.919,5.074 4.562,5.074c2.622,0 4.542,-2.107 4.542,-5.074m-11.52,0c0,-4.149 2.89,-7.332 7.02,-7.332c4.108,0 6.916,3.204 6.916,7.332c0,4.149 -2.891,7.331 -7.02,7.331c-4.108,0 -6.916,-3.203 -6.916,-7.331" style="fill:#8b587e;fill-rule:nonzero;"/><path d="M320.821,212.92c0,-2.946 -1.92,-5.074 -4.542,-5.074c-2.643,0 -4.562,2.107 -4.562,5.074c0,2.945 1.919,5.074 4.562,5.074c2.622,0 4.542,-2.107 4.542,-5.074m-11.52,0c0,-4.149 2.89,-7.332 7.02,-7.332c4.108,0 6.916,3.204 6.916,7.332c0,4.149 -2.891,7.331 -7.02,7.331c-4.108,0 -6.916,-3.203 -6.916,-7.331" style="fill:#8b587e;fill-rule:nonzero;"/><path d="M329.758,217.822c3.509,0 5.326,-1.978 5.326,-5.009c0,-3.096 -2.106,-4.795 -5.492,-4.795l-1.176,0l0,9.804l1.342,0Zm-5.224,0l1.549,0l0,-9.804l-1.549,0l0,-2.172l5.141,0c4.914,0 7.825,2.666 7.825,6.945c0,4.322 -2.746,7.202 -8.073,7.202l-4.893,0l0,-2.171Z" style="fill:#8b587e;fill-rule:nonzero;"/><path d="M355.334,213.501l-1.899,-5.569l-1.9,5.569l3.799,0Zm-8.774,4.321l1.177,0l3.386,-9.825l-1.487,0l0,-2.15l7.68,0l0,2.15l-1.486,0l3.385,9.825l1.177,0l0,2.172l-5.223,0l0,-2.15l1.569,0l-0.764,-2.322l-5.078,0l-0.765,2.322l1.652,0l0,2.15l-5.223,0l0,-2.172Z" style="fill:#8b587e;fill-rule:nonzero;"/><path d="M360.658,216.962c0,-1.011 0.578,-1.677 1.425,-1.677c0.908,0 1.486,0.709 1.486,1.397c0,0.344 -0.062,0.602 -0.186,0.86c0.496,0.366 1.26,0.602 2.148,0.602c1.486,0 2.436,-0.688 2.436,-1.913c0,-1.161 -1.136,-1.72 -2.498,-2.215c-2.519,-0.946 -4.295,-1.784 -4.295,-4.407c0,-2.257 1.755,-4.021 4.501,-4.021c2.539,0 4.501,1.355 4.501,3.053c0,1.011 -0.599,1.592 -1.384,1.592c-0.949,0 -1.486,-0.731 -1.486,-1.441c0,-0.344 0.062,-0.495 0.144,-0.666c-0.371,-0.237 -0.949,-0.431 -1.796,-0.431c-1.342,0 -2.126,0.71 -2.126,1.742c0,1.161 1.135,1.677 2.498,2.193c2.436,0.903 4.274,1.784 4.274,4.407c0,2.688 -2.003,4.214 -4.79,4.214c-2.684,0 -4.852,-1.569 -4.852,-3.289" style="fill:#8b587e;fill-rule:nonzero;"/><path d="M371.702,216.962c0,-1.011 0.578,-1.677 1.425,-1.677c0.908,0 1.486,0.709 1.486,1.397c0,0.344 -0.062,0.602 -0.186,0.86c0.496,0.366 1.26,0.602 2.148,0.602c1.486,0 2.436,-0.688 2.436,-1.913c0,-1.161 -1.136,-1.72 -2.498,-2.215c-2.519,-0.946 -4.295,-1.784 -4.295,-4.407c0,-2.257 1.755,-4.021 4.501,-4.021c2.539,0 4.501,1.355 4.501,3.053c0,1.011 -0.599,1.592 -1.384,1.592c-0.949,0 -1.486,-0.731 -1.486,-1.441c0,-0.344 0.062,-0.495 0.144,-0.666c-0.371,-0.237 -0.949,-0.431 -1.796,-0.431c-1.342,0 -2.126,0.71 -2.126,1.742c0,1.161 1.135,1.677 2.498,2.193c2.436,0.903 4.274,1.784 4.274,4.407c0,2.688 -2.003,4.214 -4.79,4.214c-2.684,0 -4.852,-1.569 -4.852,-3.289" style="fill:#8b587e;fill-rule:nonzero;"/><path d="M394.39,212.92c0,-2.946 -1.92,-5.074 -4.542,-5.074c-2.643,0 -4.562,2.107 -4.562,5.074c0,2.945 1.919,5.074 4.562,5.074c2.622,0 4.542,-2.107 4.542,-5.074m-11.52,0c0,-4.149 2.89,-7.332 7.02,-7.332c4.108,0 6.916,3.204 6.916,7.332c0,4.149 -2.891,7.331 -7.02,7.331c-4.108,0 -6.916,-3.203 -6.916,-7.331" style="fill:#8b587e;fill-rule:nonzero;"/><path d="M398.289,212.92c0,-4.257 3.179,-7.332 7.143,-7.332c3.159,0 5.265,1.721 5.265,3.419c0,1.032 -0.64,1.742 -1.487,1.742c-0.929,0 -1.569,-0.602 -1.569,-1.527c0,-0.28 0.062,-0.559 0.145,-0.731c-0.393,-0.322 -1.177,-0.645 -2.416,-0.645c-2.643,0 -4.665,2.107 -4.665,5.053c0,2.837 1.899,5.095 4.769,5.095c1.589,0 2.89,-0.731 3.901,-1.871l1.549,1.677c-1.322,1.527 -3.283,2.451 -5.45,2.451c-4.191,0 -7.185,-2.924 -7.185,-7.331" style="fill:#8b587e;fill-rule:nonzero;"/><path d="M412.181,217.822l1.652,0l0,-9.804l-1.652,0l0,-2.172l5.636,0l0,2.172l-1.651,0l0,9.804l1.651,0l0,2.171l-5.636,0l0,-2.171Z" style="fill:#8b587e;fill-rule:nonzero;"/><path d="M427.21,213.501l-1.899,-5.569l-1.9,5.569l3.799,0Zm-8.774,4.321l1.177,0l3.386,-9.825l-1.487,0l0,-2.15l7.68,0l0,2.15l-1.486,0l3.385,9.825l1.177,0l0,2.172l-5.223,0l0,-2.15l1.569,0l-0.764,-2.322l-5.078,0l-0.765,2.322l1.652,0l0,2.15l-5.223,0l0,-2.172Z" style="fill:#8b587e;fill-rule:nonzero;"/><path d="M434.6,217.822l1.693,0l0,-9.868l-2.519,0l0,2.236l-2.209,0l0,-4.344l11.788,0l0,4.344l-2.209,0l0,-2.236l-2.518,0l0,9.868l1.693,0l0,2.171l-5.719,0l0,-2.171Z" style="fill:#8b587e;fill-rule:nonzero;"/><path d="M444.177,217.822l1.652,0l0,-9.804l-1.652,0l0,-2.172l5.636,0l0,2.172l-1.651,0l0,9.804l1.651,0l0,2.171l-5.636,0l0,-2.171Z" style="fill:#8b587e;fill-rule:nonzero;"/><path d="M462.633,212.92c0,-2.946 -1.92,-5.074 -4.542,-5.074c-2.643,0 -4.562,2.107 -4.562,5.074c0,2.945 1.919,5.074 4.562,5.074c2.622,0 4.542,-2.107 4.542,-5.074m-11.52,0c0,-4.149 2.89,-7.332 7.02,-7.332c4.108,0 6.916,3.204 6.916,7.332c0,4.149 -2.891,7.331 -7.02,7.331c-4.108,0 -6.916,-3.203 -6.916,-7.331" style="fill:#8b587e;fill-rule:nonzero;"/><path d="M470.166,210.233l0,7.589l1.693,0l0,2.172l-5.512,0l0,-2.172l1.548,0l0,-9.803l-1.548,0l0,-2.172l3.53,0l6.689,8.879l0,-6.707l-1.692,0l0,-2.172l5.45,0l0,2.172l-1.487,0l0,11.996l-1.259,0.043l-7.412,-9.825Z" style="fill:#8b587e;fill-rule:nonzero;"/><path d="M68.354,71.068c-0.015,-0.67 -0.387,-0.894 -0.938,-0.894c-0.686,0 -0.983,0.298 -0.983,0.626c0,0.387 0.253,0.551 0.7,0.685c0.819,0.238 2.323,0.536 3.41,0.998c1.355,0.566 1.951,1.534 1.951,2.83c0,2.636 -2.144,3.737 -5.182,3.737c-2.592,0 -4.975,-0.803 -4.975,-3.603l4.081,0c0,0.298 0.06,0.596 0.224,0.819c0.163,0.208 0.431,0.342 0.834,0.342c0.625,0 1.027,-0.402 1.027,-0.878c0,-0.402 -0.313,-0.611 -0.715,-0.73l-3.023,-0.894c-1.653,-0.491 -2.234,-1.489 -2.234,-2.874c0,-2.234 1.802,-3.5 4.945,-3.5c2.68,0 4.691,0.834 4.691,3.336l-3.813,0Z" style="fill:#5f9f44;fill-rule:nonzero;"/><rect x="76.434" y="68.015" width="4.26" height="10.752" style="fill:#5f9f44;"/><path d="M85.098,68.016l5.108,0l2.279,6.508l0.029,0l0,-6.508l3.455,0l0,10.752l-5.108,0l-2.279,-6.552l-0.029,0l0,6.552l-3.455,0l0,-10.752Z" style="fill:#5f9f44;fill-rule:nonzero;"/><path d="M110.528,74.792c0,2.963 -2.368,4.259 -5.033,4.259c-3.768,0 -5.511,-2.293 -5.511,-5.704c-0.104,-3.351 1.892,-5.615 5.525,-5.615c2.711,0 5.004,1.103 5.019,4.26l-3.901,0c-0.06,-1.221 -0.507,-1.46 -1.028,-1.46c-1.102,0 -1.207,1.132 -1.207,2.86c0,1.638 0.09,2.859 1.162,2.859c0.551,0 0.923,-0.327 0.983,-1.459l3.991,0Z" style="fill:#5f9f44;fill-rule:nonzero;"/><path d="M114.543,68.016l8.176,0l0,2.8l-4.095,0l0,1.146l3.782,0l0,2.8l-3.782,0l0,1.207l4.23,0l0,2.799l-8.311,0l0,-10.752Z" style="fill:#5f9f44;fill-rule:nonzero;"/><path d="M137.782,71.768c-0.746,0.536 -1.401,0.908 -2.324,1.191l0,-3.067c1.191,-0.402 2.368,-0.983 3.157,-1.877l3.247,0l0,10.753l-4.081,0l0,-7Z" style="fill:#5f9f44;fill-rule:nonzero;"/><path d="M151.984,72.87c0.64,0 1.013,-0.342 1.013,-1.326c0,-1.027 -0.373,-1.37 -1.013,-1.37c-0.64,0 -1.013,0.343 -1.013,1.37c0,0.984 0.373,1.326 1.013,1.326m-0.67,2.934c0,0.655 0.342,0.804 0.745,0.804c0.789,0 1.072,-0.64 1.146,-2.443c-0.596,0.626 -1.444,0.82 -2.263,0.82c-1.847,0 -3.575,-1.058 -3.575,-3.366c0,-2.413 1.847,-3.887 4.736,-3.887c3.292,0 4.915,2.011 4.915,5.346c0,3.992 -1.787,5.972 -5.138,5.972c-2.309,0 -4.021,-0.834 -4.021,-3.246l3.455,0Z" style="fill:#5f9f44;fill-rule:nonzero;"/><path d="M165.575,72.141c0.507,0 0.774,-0.253 0.774,-0.982c0,-0.715 -0.267,-0.984 -0.774,-0.984c-0.506,0 -0.774,0.269 -0.774,0.984c0,0.729 0.268,0.982 0.774,0.982m0,4.468c0.492,0 0.909,-0.268 0.909,-1.087c0,-0.819 -0.417,-1.087 -0.909,-1.087c-0.521,0 -0.938,0.268 -0.938,1.087c0,0.819 0.417,1.087 0.938,1.087m-2.71,-3.291l0,-0.03c-1.162,-0.238 -1.877,-0.983 -1.877,-2.323c0,-1.922 1.52,-3.232 4.558,-3.232c3.097,0 4.616,1.31 4.616,3.232c0,1.34 -0.715,2.085 -1.936,2.323l0,0.03c1.504,0.298 2.16,1.325 2.16,2.651c0,1.519 -1.147,3.082 -4.84,3.082c-3.664,0 -4.811,-1.563 -4.811,-3.082c0,-1.326 0.655,-2.353 2.13,-2.651" style="fill:#5f9f44;fill-rule:nonzero;"/><path d="M178.884,74.33l0,-3.693l-0.03,0l-2.011,3.693l2.041,0Zm-0.09,2.71l-4.914,0l0,-3.067l3.634,-5.957l5.183,0l0,6.314l1.28,0l0,2.71l-1.28,0l0,1.728l-3.903,0l0,-1.728Z" style="fill:#5f9f44;fill-rule:nonzero;"/><path d="M192.343,154.099l19.945,0c0.813,0 1.505,0.607 1.599,1.413c0.445,3.827 2.055,6.507 6.175,9.692c3.982,2.934 12.529,4.191 19.025,4.191c9.64,0 16.136,-3.772 16.136,-9.64c0,-14.458 -37.511,-4.82 -57.628,-24.936c-4.191,-4.191 -7.335,-10.687 -7.335,-18.022c0,-16.974 15.299,-29.128 36.674,-29.128c9.01,0 19.047,1.677 26.59,4.82l0,-3.353l22.632,0l0,28.709l-22.632,0c-1.886,-6.915 -10.665,-10.268 -23.239,-10.268c-8.381,0 -13.62,3.144 -13.62,7.543c0,13.832 64.544,0.63 64.544,41.703c0,19.279 -13.412,33.319 -38.979,33.319c-11.801,0 -21.448,-1.724 -25.897,-4.816c-1.083,-0.754 -2.557,-0.008 -2.557,1.311c0,0.894 -0.725,1.618 -1.62,1.618l-19.813,0c-0.894,0 -1.619,-0.724 -1.619,-1.618l0,-30.92c0,-0.893 0.725,-1.618 1.619,-1.618" style="fill:#22628f;fill-rule:nonzero;"/><path d="M350.121,188.256l-60.981,0l0,-22.842l13.621,0l0,-53.437l-13.621,0l0,-22.842l13.621,0l0,-8.381c0,-18.442 10.268,-37.302 38.558,-37.302c15.089,0 25.985,4.61 32.902,13.831l-24.1,18.021c-2.305,-7.753 -3.562,-10.687 -7.963,-10.687c-4.82,0 -7.334,4.401 -7.334,13.831l0,10.687l15.297,0l0,22.842l-15.297,0l0,53.437l15.297,0l0,22.842Z" style="fill:#8b587e;fill-rule:nonzero;"/><path d="M438.139,117.7c0.015,0.109 0.016,0.216 0.026,0.325c0.009,0.055 0.031,0.103 0.038,0.158l-0.064,-0.483Z" style="fill:#f98b3c;fill-rule:nonzero;"/><path d="M128.234,89.135c0.04,5.496 0.232,11.662 0.121,16.488c6.237,1.385 11.208,7.995 10.402,16.059c-1.629,16.322 -2.909,42.624 -2.909,42.624l-2.509,0c0,0 -0.551,-25.465 0.042,-39.182c0.047,-1.094 -0.903,-1.985 -2.117,-1.985c-0.578,0 -1.132,0.201 -1.557,0.566c-0.443,0.381 -0.692,0.89 -0.703,1.433c-0.309,13.711 -0.208,39.168 -0.208,39.168l-2.771,0c0,0 -0.501,-25.462 -0.359,-39.174c0.012,-1.1 -0.97,-1.993 -2.188,-1.993c-1.219,0 -2.201,0.893 -2.188,1.992c0.142,13.713 0.119,39.175 0.119,39.175l-2.771,0c0,0 -0.378,-25.457 -0.686,-39.168c-0.011,-0.543 -0.26,-1.052 -0.703,-1.433c-0.425,-0.365 -0.98,-0.566 -1.557,-0.566c-1.214,0 -2.165,0.891 -2.118,1.985c0.594,13.717 0.298,39.182 0.298,39.182l-2.509,0c0,0 -1.938,-26.61 -3.165,-42.624c-0.951,-12.413 10.602,-16.059 10.602,-16.059l-0.08,-16.488l-56.108,0l0,22.842c0,0 13.087,-0.575 18.459,9.273c1.241,2.274 29.529,68.472 29.529,68.472l27.033,0c0,0 26.547,-64.979 28.272,-68.109c6.177,-11.205 18.46,-9.636 18.46,-9.636l0,-22.842l-56.131,0Z" style="fill:#5f9f44;fill-rule:nonzero;"/></g></svg>